# xmcd
#
# Track frame offsets:
#	150
#	23385
#	51593
#	68085
#	86925
#	120468
#	137940
#	160340
#	189223
#	207370
#	234300
#	260500
#
# Disc length: 4065 seconds
# Revision: 0
# Processed by: cddbd v1.5.2PL0 Copyright (c) Steve Scherf et al.
# Submitted via: dBpowerAMP V12.0
#
DISCID=a40fdf0c
DTITLE=Alvin Lee - I Hear You Rockin'
DYEAR=1997
DGENRE=Blues
TTITLE0=Keep On Rockin'
TTITLE1=Long Legs
TTITLE2=I Hear You Knockin'
TTITLE3=Aint't Nobody's Business
TTITLE4=The Bluest Blues
TTITLE5=Boogie All Day
TTITLE6=My Baby's Come Back to Me
TTITLE7=Take It Easy
TTITLE8=Play It Like It Used To Play
TTITLE9=Give Me Your Love
TTITLE10=I Don't Give a Damn
TTITLE11=I Want You (She's So Heavy)
EXTD=
EXTT0=
EXTT1=
EXTT2=
EXTT3=
EXTT4=
EXTT5=
EXTT6=
EXTT7=
EXTT8=
EXTT9=
EXTT10=
EXTT11=
PLAYORDER=
